# AST/ASF file generated using VICON BodyLanguage
# -----------------------------------------------
:version 1.10
:name VICON
:units
  mass 1.0
  length 0.45
  angle deg
:documentation
   .ast/.asf automatically generated from VICON data using
   VICON BodyBuilder and BodyLanguage model FoxedUp or BRILLIANT.MOD
:root
   order TX TY TZ RX RY RZ
   axis XYZ
   position 0 0 0  
   orientation 0 0 0 
:bonedata
  begin
     id 1 
     name lhipjoint
     direction 0.822369 -0.411937 0.392449 
     length 3.8167 
     axis 0 0 0  XYZ
  end
  begin
     id 2 
     name lfemur
     direction 0.34202 -0.939693 0  
     length 6.16791  
     axis 0 0 20  XYZ
    dof rx ry rz
    limits (-160.0 20.0)
           (-70.0 70.0)
           (-60.0 70.0)
  end
  begin
     id 3 
     name ltibia
     direction 0.34202 -0.939693 0   
     length 7.07101   
     axis 0 0 20   XYZ
    dof rx
    limits (-10.0 170.0)
  end
  begin
     id 4 
     name lfoot
     direction 0.028254 -0.0776273 0.996582   
     length 1.66799   
     axis -90 7.62852e-016 20   XYZ
    dof rx rz
    limits (-45.0 90.0)
           (-70.0 20.0)
  end
  begin
     id 5 
     name ltoes
     direction 1.53483e-011 -4.21688e-011 1   
     length 0.851674   
     axis -90 7.62852e-016 20   XYZ
    dof rx
    limits (-90.0 20.0)
  end
  begin
     id 6 
     name rhipjoint
     direction -0.822466 -0.411836 0.392353   
     length 3.81764  
     axis 0 0 0  XYZ 
  end
  begin
     id 7 
     name rfemur
     direction -0.34202 -0.939693 0   
     length 6.28636   
     axis 0 0 -20   XYZ
    dof rx ry rz
    limits (-160.0 20.0)
           (-70.0 70.0)
           (-70.0 60.0)
  end
  begin
     id 8 
     name rtibia
     direction -0.34202 -0.939693 0   
     length 6.85621   
     axis 0 0 -20   XYZ
    dof rx
    limits (-10.0 170.0)
 end
 begin
     id 9 
     name rfoot
     direction -0.0553036 -0.151945 0.98684   
     length 1.57293  
     axis -90 -7.62852e-016 -20   XYZ
    dof rx rz
    limits (-45.0 90.0)
           (-20.0 70.0)
  end
  begin
     id 10 
     name rtoes
     direction -1.53592e-011 -4.21964e-011 1   
     length 0.802812   
     axis -90 -7.62852e-016 -20   XYZ
    dof rx
    limits (-90.0 20.0)
  end
  begin
     id 11 
     name lowerback
     direction 0.00654913 0.996475 -0.0836396   
     length 1.97212   
     axis 0 0 0   XYZ
    dof rx ry rz
    limits (-20.0 45.0)
           (-30.0 30.0)
           (-30.0 30.0)
  end
  begin
     id 12 
     name upperback
     direction 0.0111875 0.994527 0.103877   
     length 1.89704   
     axis 0 0 0   XYZ
    dof rx ry rz
    limits (-20.0 45.0)
           (-30.0 30.0)
           (-30.0 30.0)
  end
  begin
     id 13 
     name thorax
     direction 0.00473652 0.989004 0.147814   
     length 1.94516   
     axis 0 0 0   XYZ
    dof rx ry rz
    limits (-20.0 45.0)
           (-30.0 30.0)
           (-30.0 30.0)
  end
  begin
     id 14 
     name lowerneck
     direction -0.00925808 0.999011 0.0434791   
     length 1.81771   
     axis 0 0 0   XYZ
    dof rx ry rz
    limits (-20.0 45.0)
           (-30.0 30.0)
           (-30.0 30.0)
  end
  begin
     id 15 
     name upperneck
     direction 0.00451595 0.964412 -0.264365   
     length 1.80434   
     axis 0 0 0   XYZ
    dof rx ry rz
    limits (-20.0 45.0)
           (-30.0 30.0)
           (-30.0 30.0)
  end
  begin
     id 16
     name head
     direction -0.00110849 0.995756 -0.0920241  
     length 1.84006  
     axis 0 0 0   XYZ
    dof rx ry rz
    limits (-20.0 45.0)
           (-30.0 30.0)
           (-30.0 30.0)
  end
  begin
     id 17 
     name lclavicle
     direction 0.921253 0.385213 0.0538957  
     length 3.67415  
     axis 0 0 0   XYZ
    dof ry rz
    limits (-20.0 10.0)
           (0.0 20.0)
  end
  begin
     id 18 
     name lhumerus
     direction 1 -4.48961e-011 6.73441e-028   
     length 4.32712   
     axis 180 -30 -90   XYZ
    dof rx ry rz
    limits (-60.0 90.0)
           (-90.0 90.0)
           (-90.0 90.0)
  end
  begin
     id 19
     name lradius
     direction 1 -4.48985e-011 -9.53507e-028   
     length 3.28587   
     axis 180 -30 -90   XYZ
    dof rx
    limits (-10.0 170.0)
  end
  begin
     id 20
     name lwrist
     direction 1 -4.48951e-011 -4.67472e-027   
     length 1.64293   
     axis 1.65735e-015 90 90   XYZ
    dof ry
    limits (-180.0 0.0)
 end
  begin
     id 21 
     name lhand
     direction 1 -4.48946e-011 -9.34945e-027   
     length 0.433158   
     axis 5.96574e-015 90 90   XYZ
    dof rx rz
    limits (-90.0 90.0)
           (-45.0 45.0)
  end
  begin
     id 22 
     name lfingers
     direction 1 -4.48882e-011 -1.86989e-026   
     length 0.349224   
     axis 1.19315e-014 90 90   XYZ
    dof rx
    limits (0.0 90.0)
  end
  begin
     id 23
     name lthumb
     direction 0.707107 -6.3493e-011 0.707107   
     length 0.501417   
     axis -90 45 2.85299e-015   XYZ
    dof rx rz
    limits (-45.0 45.0)
           (-45.0 45.0)
  end
  begin
     id 24 
     name rclavicle
     direction -0.884378 0.46502 -0.0403866   
     length 3.50218  
     axis 0 0 0   XYZ 
    dof ry rz
    limits (-10.0 20.0)
           (-20.0 0.0)
  end
  begin
     id 25 
     name rhumerus
     direction -1 -4.48964e-011 1.58188e-027  
     length 4.29104   
     axis 180 30 90   XYZ
    dof rx ry rz
    limits (-90.0 60.0)
           (-90.0 90.0)
           (-90.0 90.0)
  end
  begin
     id 26 
     name rradius
     direction -1 -4.48978e-011 -1.9722e-027   
     length 3.2272   
     axis 180 30 90   XYZ
    dof rx
    limits (-10.0 170.0)
  end
  begin
     id 27 
     name rwrist
     direction -1 -4.48969e-011 -4.67472e-027   
     length 1.6136   
     axis 1.65735e-015 -90 -90   XYZ
    dof ry
    limits (-180.0 0.0)
  end
  begin
     id 28
     name rhand
     direction -1 -4.48846e-011 -9.34945e-027   
     length 0.543623   
     axis 5.96574e-015 -90 -90   XYZ
    dof rx rz
    limits (-90.0 90.0)
           (-45.0 45.0)
  end
  begin
     id 29
     name rfingers
     direction -1 -4.49074e-011 -1.86989e-026   
     length 0.438283   
     axis 1.19315e-014 -90 -90   XYZ
    dof rx
    limits (0.0 90.0)
  end
  begin
     id 30
     name rthumb
     direction -0.707107 -6.34834e-011 0.707107   
     length 0.629289   
     axis -90 -45 -2.85299e-015   XYZ
    dof rx rz
    limits (-45.0 45.0)
           (-45.0 45.0)
  end
:hierarchy
  begin
    root lhipjoint rhipjoint lowerback
    lhipjoint lfemur
    lfemur ltibia
    ltibia lfoot
    lfoot ltoes
    rhipjoint rfemur
    rfemur rtibia
    rtibia rfoot
    rfoot rtoes
    lowerback upperback
    upperback thorax
    thorax lowerneck lclavicle rclavicle
    lowerneck upperneck
    upperneck head
    lclavicle lhumerus
    lhumerus lradius
    lradius lwrist
    lwrist lhand lthumb
    lhand lfingers
    rclavicle rhumerus
    rhumerus rradius
    rradius rwrist
    rwrist rhand rthumb
    rhand rfingers
  end

#!OML:ASF H:\GeneralSubjects\Female5\Project 1\Capture day 1\Session 1\Female5.ASF
:FULLY-SPECIFIED
:DEGREES
195
root -22.378 16.2402 1.25835 -163.675 27.8646 -171.876
lowerback 8.04854 1.67409 -4.60169
upperback -9.12791 2.26792 1.68318
thorax -14.9359 1.87462 3.94484
lowerneck -17.4205 -1.52068 8.21396
upperneck 37.4523 0.0220663 -6.34542
head 16.2769 1.27418 -3.97211
rclavicle 3.89618e-014 1.59028e-014
rhumerus -53.4667 22.2585 -84.0315
rradius 38.7919
rwrist -9.74098
rhand -24.145 -17.182
rfingers 7.12502
rthumb 2.33731 -47.149
lclavicle 3.89618e-014 1.59028e-014
lhumerus -43.7592 4.40775 70.4024
lradius 28.0466
lwrist -3.92874
lhand -24.9318 29.8041
lfingers 7.12502
lthumb 1.57739 59.778
rfemur -7.51679 50.681 2.52239
rtibia -10.9295
rfoot -70.8245 -7.74528
rtoes 42.3176
lfemur -8.86333 -22.55 -15.1153
ltibia 13.317
lfoot -27.8847 0.338793
ltoes -54.193
196
root -22.1834 16.2246 1.29184 -163.986 26.685 -172.252
lowerback 7.99204 1.4934 -4.78201
upperback -9.12443 2.0112 1.75353
thorax -14.8782 1.78082 4.18146
lowerneck -17.4153 -1.72386 8.12736
upperneck 37.4043 -0.11442 -6.70558
head 16.2295 1.15495 -4.13837
rclavicle -1.09332e-015 -3.18055e-015
rhumerus -53.7755 22.3795 -83.9385
rradius 38.9526
rwrist -9.97259
rhand -23.9458 -17.1212
rfingers 7.12502
rthumb 2.52968 -47.0859
lclavicle -1.09332e-015 -3.18055e-015
lhumerus -43.6297 4.85694 70.401
lradius 27.7079
lwrist -4.36745
lhand -24.947 29.9289
lfingers 7.12502
lthumb 1.56277 59.9029
rfemur -7.72304 51.8109 2.33783
rtibia -10.1131
rfoot -71.1448 -8.26931
rtoes 42.3705
lfemur -8.54291 -23.4098 -14.611
ltibia 12.7836
lfoot -27.714 0.214966
ltoes -54.3025
197
root -21.9791 16.205 1.32425 -164.301 25.4915 -172.622
lowerback 7.92076 1.30526 -4.94607
upperback -9.12553 1.74772 1.8185
thorax -14.8121 1.68162 4.4038
lowerneck -17.3371 -1.86823 7.94327
upperneck 37.3276 -0.174992 -6.90842
head 16.1607 1.07659 -4.19951
rclavicle 2.21645e-014 -3.97569e-015
rhumerus -54.1248 22.5542 -83.8969
rradius 39.0968
rwrist -10.2348
rhand -23.7906 -17.1032
rfingers 7.12502
rthumb 2.6796 -47.0661
lclavicle 2.21645e-014 -3.97569e-015
lhumerus -43.5314 5.24876 70.3822
lradius 27.4451
lwrist -4.76552
lhand -24.9344 29.9153
lfingers 7.12502
lthumb 1.57488 59.8892
rfemur -8.08151 52.9935 2.22379
rtibia -9.03903
rfoot -71.542 -8.68214
rtoes 42.5764
lfemur -8.19113 -24.3525 -14.0962
ltibia 12.2521
lfoot -27.5815 -0.501538
ltoes -53.0762
198
root -21.7654 16.1812 1.35501 -164.629 24.2989 -172.993
lowerback 7.84062 1.11546 -5.10234
upperback -9.13298 1.48328 1.87318
thorax -14.7447 1.58047 4.60957
lowerneck -17.2186 -1.9825 7.64827
upperneck 37.2819 -0.206443 -6.92295
head 16.1048 1.02649 -4.15092
rclavicle 1.57785e-014 -1.51076e-014
rhumerus -54.5223 22.7611 -83.9076
rradius 39.2236
rwrist -10.4884
rhand -23.6988 -17.1052
rfingers 7.12502
rthumb 2.76825 -47.067
lclavicle 1.57785e-014 -1.51076e-014
lhumerus -43.471 5.57659 70.3499
lradius 27.2621
lwrist -5.08668
lhand -24.864 29.7469
lfingers 7.12502
lthumb 1.64288 59.7204
rfemur -8.70301 54.2027 2.07233
rtibia -7.66615
rfoot -72.0554 -9.00463
rtoes 42.8232
lfemur -7.79327 -25.39 -13.5904
ltibia 11.726
lfoot -27.4587 -1.79832
ltoes -50.322
199
root -21.5423 16.1529 1.38451 -164.969 23.13 -173.365
lowerback 7.75196 0.931636 -5.26453
upperback -9.14685 1.22639 1.91811
thorax -14.6786 1.48297 4.80528
lowerneck -17.0836 -2.10061 7.33702
upperneck 37.2571 -0.245636 -6.89966
head 16.0556 0.979312 -4.08402
rclavicle -2.31087e-014 -1.19271e-014
rhumerus -54.9341 22.94 -83.9276
rradius 39.3056
rwrist -10.6625
rhand -23.6574 -17.0941
rfingers 7.12502
rthumb 2.80824 -47.0554
lclavicle -2.31087e-014 -1.19271e-014
lhumerus -43.431 5.85594 70.2998
lradius 27.1413
lwrist -5.32605
lhand -24.807 29.6637
lfingers 7.12502
lthumb 1.69794 59.6366
rfemur -9.70415 55.4242 1.73641
rtibia -5.99229
rfoot -72.7737 -9.45865
rtoes 42.7812
lfemur -7.35304 -26.5041 -13.0951
ltibia 11.2092
lfoot -27.3074 -3.44337
ltoes -46.2581
200
root -21.3101 16.12 1.41363 -165.314 22.0102 -173.731
lowerback 7.65396 0.761254 -5.43048
upperback -9.16336 0.98791 1.95785
thorax -14.6103 1.39401 4.99262
lowerneck -16.9269 -2.19504 6.99986
upperneck 37.2438 -0.255581 -6.81538
head 16.0117 0.951979 -3.97995
rclavicle -2.02015e-014 -8.74653e-015
rhumerus -55.3003 23.034 -83.8964
rradius 39.3049
rwrist -10.7158
rhand -23.6434 -17.0307
rfingers 7.12502
rthumb 2.82176 -46.9917
lclavicle -2.02015e-014 -8.74653e-015
lhumerus -43.3902 6.12472 70.2221
lradius 27.0637
lwrist -5.52537
lhand -24.6515 29.4291
lfingers 7.12502
lthumb 1.84818 59.4008
rfemur -11.1446 56.6699 1.08722
rtibia -4.09883
rfoot -73.8378 -10.2529
rtoes 42.0868
lfemur -6.87645 -27.6803 -12.6003
ltibia 10.7137
lfoot -27.1734 -4.96381
ltoes -41.8312
201
root -21.0693 16.0827 1.44315 -165.666 20.9645 -174.081
lowerback 7.55774 0.612437 -5.59461
upperback -9.17702 0.779575 2.00113
thorax -14.5425 1.31878 5.17605
lowerneck -16.7771 -2.2872 6.63449
upperneck 37.225 -0.25256 -6.73838
head 15.9686 0.924423 -3.872
rclavicle 2.92462e-014 6.36111e-015
rhumerus -55.5796 23.0259 -83.7659
rradius 39.2086
rwrist -10.648
rhand -23.6205 -16.9244
rfingers 7.12502
rthumb 2.84387 -46.8852
lclavicle 2.92462e-014 6.36111e-015
lhumerus -43.3446 6.42581 70.1185
lradius 27.0236
lwrist -5.73657
lhand -24.3155 28.9623
lfingers 7.12502
lthumb 2.17261 58.931
rfemur -9.95855 46.6677 3.85611
rtibia -3.88518
rfoot -64.1507 -14.439
rtoes 40.5728
lfemur -6.35149 -28.8773 -12.1017
ltibia 10.2394
lfoot -27.1631 -5.91101
ltoes -38.4583
